<?xml version="1.0" standalone="no"?>
<!DOCTYPE svg PUBLIC "-//W3C//DTD SVG 20010904//EN"
 "http://www.w3.org/TR/2001/REC-SVG-20010904/DTD/svg10.dtd">
<svg version="1.0" xmlns="http://www.w3.org/2000/svg"
 width="2048.000000pt" height="1152.000000pt" viewBox="0 0 2048.000000 1152.000000"
 preserveAspectRatio="xMidYMid meet">

<g transform="translate(0.000000,1152.000000) scale(0.100000,-0.100000)"
fill="#000000" stroke="none">
<path d="M0 5760 l0 -5760 10240 0 10240 0 0 5760 0 5760 -10240 0 -10240 0 0
-5760z m2473 1711 c23 -11 125 -54 226 -96 102 -41 186 -77 188 -79 2 -2 -3
-36 -12 -75 l-17 -71 -51 0 c-50 0 -129 10 -208 25 -42 8 -47 2 -56 -85 -5
-51 -1 -70 42 -186 49 -133 78 -174 147 -210 25 -13 28 -12 48 14 62 78 164
182 180 182 10 0 39 -19 65 -42 41 -37 46 -46 41 -71 -7 -36 -68 -157 -147
-292 -63 -108 -92 -145 -114 -145 -14 0 -293 140 -362 182 l-33 20 -55 -26
c-31 -14 -71 -28 -90 -32 -32 -6 -36 -3 -56 31 -18 30 -26 35 -46 30 -30 -7
-250 -105 -415 -184 -70 -34 -130 -61 -133 -61 -11 0 -280 -114 -302 -128 -39
-25 -28 -55 66 -180 54 -71 138 -194 352 -511 l77 -115 61 -12 c101 -21 220
-123 267 -231 37 -84 44 -234 15 -319 l-20 -62 26 -88 c14 -49 33 -123 42
-164 l16 -75 110 -5 c121 -5 148 -17 187 -81 25 -40 26 -229 2 -253 -14 -14
-97 -16 -770 -16 -502 0 -762 3 -775 10 -17 10 -19 22 -19 123 0 176 31 208
207 215 l102 4 19 67 c59 200 64 249 37 389 -16 86 -16 98 -2 157 20 79 14
102 -58 245 -30 58 -67 139 -83 180 -17 41 -55 125 -85 186 -31 61 -60 129
-66 152 -6 22 -23 60 -36 84 -14 24 -25 51 -25 60 0 18 -7 21 -95 38 -54 11
-66 18 -118 71 -68 70 -102 138 -111 230 -6 58 -4 75 21 139 15 39 39 84 53
99 40 44 109 93 148 107 50 18 153 17 216 -1 l53 -15 464 153 c255 85 463 158
462 163 -1 5 -4 25 -8 45 l-6 35 88 33 c48 19 93 38 100 43 6 5 50 101 98 214
48 112 91 204 96 204 5 0 28 -9 52 -19z m15817 -313 c333 -110 611 -205 618
-211 9 -7 12 -183 12 -818 l0 -809 239 0 c200 0 241 -2 251 -15 17 -20 143
-21 159 -1 31 37 168 44 244 12 76 -31 150 -169 201 -372 78 -314 104 -536 75
-635 -35 -114 -175 -182 -301 -145 -98 28 -121 58 -189 246 -31 87 -41 104
-56 101 -56 -11 -160 -4 -190 12 -27 14 -60 17 -201 17 -151 0 -175 -2 -217
-21 -47 -21 -77 -22 -178 -7 -15 2 -26 -16 -56 -102 -47 -131 -73 -182 -107
-209 -40 -32 -129 -54 -182 -47 -50 7 -124 40 -148 67 -14 15 -18 16 -42 3
-22 -11 -133 -14 -629 -14 -587 0 -604 1 -623 20 -13 13 -17 26 -12 39 4 10
53 60 110 111 l102 93 0 701 c0 386 3 1027 6 1426 6 703 7 726 26 742 17 15
47 17 251 17 l232 0 605 -201z m-10158 35 c12 4 28 1 35 -5 16 -13 17 4 1 20
-9 9 -9 12 0 12 7 0 21 -9 32 -20 18 -18 35 -19 207 -20 167 -2 191 -4 211
-20 12 -10 18 -21 13 -24 -5 -3 25 -52 68 -109 42 -57 109 -151 149 -210 l73
-107 52 -1 c29 -1 66 -5 82 -9 25 -6 21 -8 -25 -9 -30 -1 -61 -5 -69 -10 -23
-15 -2 -31 42 -31 41 -1 41 -1 17 -14 -14 -8 -29 -12 -33 -9 -5 3 -3 -4 5 -16
7 -12 18 -21 25 -21 7 0 13 -5 13 -11 0 -6 7 -8 16 -5 8 3 23 2 32 -3 9 -5 46
-12 82 -16 l65 -7 53 74 52 73 -27 3 c-49 6 -50 22 -2 22 l46 0 124 182 c68
100 126 186 128 192 2 6 15 21 28 33 12 12 23 29 23 38 0 8 6 15 14 15 8 0 13
7 12 16 0 9 5 19 12 21 7 3 12 -4 12 -16 0 -21 3 -21 254 -21 140 0 261 -3
270 -6 14 -5 16 -39 16 -269 l0 -263 25 -6 c37 -9 31 -24 -11 -28 -30 -2 -40
-9 -58 -42 -11 -21 -30 -49 -41 -61 -11 -13 -45 -55 -75 -95 -30 -40 -68 -88
-84 -107 -32 -38 -26 -51 24 -54 14 -1 3 -5 -24 -10 -44 -7 -100 -39 -68 -39
7 0 12 -5 12 -11 0 -6 -8 -9 -17 -7 -19 4 -37 -17 -176 -195 -43 -55 -74 -103
-71 -111 3 -9 -2 -16 -13 -18 -33 -6 21 -48 62 -48 43 0 46 -14 6 -28 -24 -9
-28 -15 -24 -33 5 -19 3 -21 -15 -17 -29 8 -29 -17 -1 -32 16 -9 19 -18 15
-36 -5 -20 11 -48 91 -154 68 -91 104 -130 118 -130 13 0 16 -3 8 -8 -23 -15
12 -50 44 -45 27 4 27 4 9 -11 -17 -14 -18 -18 -5 -33 9 -10 39 -48 69 -85 42
-54 56 -65 67 -56 18 15 29 2 13 -17 -10 -13 -3 -27 47 -93 33 -42 65 -87 71
-99 7 -12 22 -24 34 -26 l23 -4 -22 -8 c-18 -6 -23 -15 -23 -39 0 -18 6 -41
14 -51 10 -15 11 -23 2 -37 -8 -15 -8 -21 3 -28 12 -7 12 -11 2 -23 -18 -22
-13 -227 6 -227 20 0 16 -18 -6 -25 -10 -3 -21 -19 -25 -36 -11 -56 -45 -62
-331 -55 -304 7 -307 8 -300 24 13 35 -44 106 -78 97 -20 -6 -21 -5 -5 8 16
12 6 30 -115 203 -108 153 -138 189 -157 191 -56 3 -63 6 -27 12 l38 6 -40 56
c-42 59 -71 75 -103 58 -15 -8 -23 -5 -39 13 -11 13 -18 17 -14 11 4 -9 -1
-13 -15 -13 -17 0 -19 -4 -14 -26 6 -22 4 -25 -12 -20 -14 4 -25 -3 -41 -28
l-22 -34 67 -7 c37 -3 83 -8 102 -12 l35 -6 -30 -8 c-16 -5 -35 -7 -42 -4 -7
2 -34 0 -62 -4 -37 -6 -51 -5 -53 4 -2 9 -10 10 -25 4 -25 -9 -193 -255 -193
-283 0 -9 -4 -15 -9 -12 -5 4 -25 -15 -44 -41 -51 -72 -53 -76 -28 -68 12 4
21 2 21 -4 0 -12 -35 -32 -50 -29 -6 2 -28 -17 -50 -42 l-38 -45 -244 0 c-279
1 -327 9 -329 53 -1 15 -3 47 -4 72 -2 25 -4 79 -6 120 -1 41 -6 78 -11 81 -6
4 -5 14 3 27 11 17 11 25 0 46 -12 22 -11 27 4 42 17 17 17 18 0 24 -23 8 -31
110 -8 110 7 0 17 -10 22 -22 l8 -22 5 22 c4 13 7 26 8 30 0 4 -14 10 -32 13
-28 5 -30 7 -14 14 11 5 26 3 38 -4 16 -10 23 -9 39 5 10 9 16 21 13 25 -3 5
-1 9 5 9 11 0 231 269 228 279 0 3 16 24 37 46 21 22 83 100 139 173 101 133
101 134 80 150 -36 28 -33 55 7 68 44 14 49 32 13 39 -48 11 -54 14 -48 25 3
5 17 10 30 10 36 0 39 17 5 32 -33 14 -37 23 -15 32 22 8 18 26 -5 26 -23 0
-26 10 -8 28 9 9 8 12 -5 12 -9 0 -17 8 -17 17 0 9 -21 44 -47 77 -26 34 -48
63 -50 65 -6 8 -33 -22 -27 -31 3 -5 3 -16 -1 -26 -11 -28 -25 8 -19 48 5 28
1 39 -15 54 -12 11 -21 29 -21 41 0 32 -24 48 -65 43 -32 -4 -36 -2 -33 16 2
15 9 20 26 19 28 -4 27 0 -47 92 -30 39 -56 71 -56 73 -1 1 -16 -5 -33 -14
-18 -8 -42 -14 -54 -11 -22 3 -22 4 -3 11 11 5 32 13 47 20 l27 12 -22 25
c-12 13 -40 48 -61 77 -21 28 -42 52 -47 52 -5 0 -9 16 -9 35 0 38 -2 39 -65
51 l-40 7 46 10 47 9 7 108 c7 121 1 188 -25 241 -16 35 -16 37 2 48 10 6 18
18 18 27 0 12 -7 14 -27 10 -16 -3 -35 -2 -43 4 -13 8 -12 10 4 10 37 0 136
33 130 42 -4 6 -19 7 -35 4 -33 -6 -37 1 -12 19 15 11 25 9 61 -12 26 -16 51
-23 64 -20z m191 10 c-7 -2 -19 -2 -25 0 -7 3 -2 5 12 5 14 0 19 -2 13 -5z
m-3147 -400 c56 -205 105 -385 108 -399 4 -15 10 -24 13 -20 3 3 52 182 108
398 l102 393 307 3 306 2 0 -765 0 -765 -215 0 -215 0 -1 543 c-1 484 -3 537
-15 497 -8 -25 -52 -193 -99 -375 -47 -181 -104 -404 -128 -495 l-43 -165
-149 0 -149 0 -17 65 c-73 285 -261 979 -268 995 -6 12 -10 -184 -10 -522 l-1
-543 -175 0 -175 0 0 765 0 765 307 -2 308 -3 101 -372z m2364 202 l0 -175
-345 0 -345 0 0 -105 0 -105 280 0 280 0 0 -175 0 -175 -280 0 -280 0 0 -130
0 -130 345 0 345 0 0 -180 0 -180 -574 0 -575 0 0 765 1 765 574 0 574 0 0
-175z m6867 118 c-4 -3 -22 -7 -39 -9 -26 -2 -29 -1 -13 6 24 10 61 13 52 3z
m-147 -23 c0 -5 -4 -10 -10 -10 -5 0 -10 5 -10 10 0 6 5 10 10 10 6 0 10 -4
10 -10z m-2910 -39 c0 -11 -25 -21 -51 -21 -29 0 -23 18 9 23 15 2 30 5 35 6
4 0 7 -3 7 -8z m57 3 c-3 -3 -12 -4 -19 -1 -8 3 -5 6 6 6 11 1 17 -2 13 -5z
m55 -6 c-9 -9 -15 -9 -24 0 -9 9 -7 12 12 12 19 0 21 -3 12 -12z m-230 -20
c-9 -9 -15 -9 -24 0 -9 9 -7 12 12 12 19 0 21 -3 12 -12z m1465 5 c-22 -4 -27
-8 -22 -24 5 -15 2 -19 -14 -19 -22 0 -25 8 -15 34 4 11 18 16 43 15 30 -2 32
-3 8 -6z m-72 -23 c3 -5 1 -10 -4 -10 -6 0 -11 5 -11 10 0 6 2 10 4 10 3 0 8
-4 11 -10z m1635 0 c0 -5 -4 -10 -9 -10 -6 0 -13 5 -16 10 -3 6 1 10 9 10 9 0
16 -4 16 -10z m-1494 -21 c15 -17 16 -23 6 -40 -10 -15 -10 -19 1 -19 7 0 18
5 23 10 7 7 21 -2 44 -25 l34 -35 23 22 c17 16 23 18 24 7 2 -39 12 -74 25
-93 8 -11 14 -25 14 -31 0 -5 -5 -3 -10 5 -8 11 -10 8 -9 -15 1 -16 -2 -38 -5
-47 -6 -13 -3 -15 13 -11 22 6 27 -9 15 -42 -6 -14 -11 -12 -35 11 -15 14 -25
32 -22 40 4 11 -13 12 -88 9 l-92 -4 39 40 38 39 -39 40 c-21 22 -35 40 -30
40 6 0 2 7 -9 15 -17 13 -17 15 -2 31 16 15 16 18 -4 36 -11 10 -18 23 -15 29
10 16 41 10 61 -12z m1494 -17 c0 -3 -27 -54 -61 -114 -63 -113 -93 -138 -82
-71 5 31 4 35 -10 30 -13 -5 -17 -1 -17 15 0 16 3 18 13 9 17 -13 28 -5 20 15
-3 8 0 21 7 29 6 8 9 19 5 25 -4 6 -2 24 5 40 11 26 16 28 66 28 30 0 54 -3
54 -6z m207 -21 c15 -20 17 -41 3 -41 -5 0 -10 5 -10 11 0 6 -5 9 -12 7 -11
-4 -58 33 -58 46 0 13 64 -6 77 -23z m-1437 -55 c0 -3 -4 -8 -10 -11 -5 -3
-10 -1 -10 4 0 6 5 11 10 11 6 0 10 -2 10 -4z m1482 -57 c-6 -57 -15 -61 -41
-17 -23 41 -23 41 -2 35 14 -3 21 0 21 10 0 8 6 13 13 10 7 -2 11 -17 9 -38z
m58 -34 c0 -9 -6 -12 -15 -9 -8 4 -15 10 -15 15 0 5 7 9 15 9 8 0 15 -7 15
-15z m-30 -55 c13 -8 13 -10 -2 -10 -9 0 -20 5 -23 10 -8 13 5 13 25 0z
m-1704 -49 c-31 -32 -60 -31 -77 2 -11 19 -9 20 27 14 22 -4 46 -2 54 3 26 17
25 11 -4 -19z m212 7 c7 -7 12 -21 12 -31 0 -12 5 -17 14 -14 8 3 20 -1 26 -9
13 -15 17 -14 -66 -20 -40 -3 -42 -1 -47 29 -7 49 30 76 61 45z m-328 -13 c0
-9 9 -15 21 -15 11 0 27 -6 34 -14 12 -11 10 -17 -14 -40 -31 -30 -41 -32 -41
-11 0 8 9 15 20 15 11 0 20 5 20 10 0 6 -6 10 -13 10 -16 0 -58 46 -50 54 11
11 23 6 23 -9z m1930 -5 c8 -5 11 -10 5 -11 -74 -8 -94 -7 -105 6 -11 13 -6
15 36 15 27 0 56 -5 64 -10z m-2946 -19 c3 -4 -8 -8 -24 -7 -17 1 -30 4 -30 9
0 10 48 9 54 -2z m2366 1 c0 -13 -12 -22 -22 -16 -10 6 -1 24 13 24 5 0 9 -4
9 -8z m-3780 -12 c0 -5 -7 -10 -16 -10 -8 0 -12 5 -9 10 3 6 10 10 16 10 5 0
9 -4 9 -10z m870 0 c0 -5 -4 -10 -10 -10 -5 0 -10 5 -10 10 0 6 5 10 10 10 6
0 10 -4 10 -10z m-1920 -20 c0 -5 -5 -10 -11 -10 -5 0 -7 5 -4 10 3 6 8 10 11
10 2 0 4 -4 4 -10z m-93 -6 c-3 -3 -12 -4 -19 -1 -8 3 -5 6 6 6 11 1 17 -2 13
-5z m5123 -5 c0 -7 11 -9 28 -6 15 3 48 0 73 -6 43 -11 46 -14 38 -36 -5 -13
-15 -21 -22 -18 -8 3 -20 1 -28 -3 -8 -5 -19 -4 -26 2 -7 6 -27 8 -45 5 -19
-4 -43 -1 -56 7 -21 11 -22 14 -8 26 15 11 15 14 -1 26 -16 12 -15 13 15 14
17 0 32 -5 32 -11z m117 5 c-3 -3 -12 -4 -19 -1 -8 3 -5 6 6 6 11 1 17 -2 13
-5z m59 -8 c18 -19 18 -46 -1 -46 -8 0 -15 9 -15 20 0 11 -5 20 -11 20 -5 0
-7 5 -4 10 8 13 14 13 31 -4z m99 4 c4 -6 -10 -10 -34 -10 -23 0 -41 5 -41 10
0 6 15 10 34 10 19 0 38 -4 41 -10z m-1454 -30 c5 0 9 -5 9 -11 0 -15 -43 -7
-48 10 -3 10 0 12 12 8 10 -4 22 -7 27 -7z m1109 -10 c0 -11 -7 -20 -15 -20
-15 0 -21 21 -8 33 12 13 23 7 23 -13z m-2740 -20 c0 -5 -2 -10 -4 -10 -3 0
-8 5 -11 10 -3 6 -1 10 4 10 6 0 11 -4 11 -10z m-1330 -150 c0 -5 -5 -10 -11
-10 -5 0 -7 5 -4 10 3 6 8 10 11 10 2 0 4 -4 4 -10z m-1929 -155 c0 -5 -7 -12
-16 -13 -23 -5 -47 6 -40 19 8 13 56 8 56 -6z m97 -71 c12 -4 22 -11 22 -16 0
-12 -70 -1 -84 13 -11 10 26 12 62 3z m3360 -467 c29 -94 78 -248 107 -342 41
-129 278 -889 311 -997 5 -17 -11 -18 -233 -18 l-239 0 -29 103 c-15 56 -34
123 -42 150 l-14 47 -206 -2 -205 -3 -46 -147 -46 -148 -189 0 c-175 0 -188 1
-183 18 3 9 41 134 85 277 100 326 241 783 342 1108 l40 127 247 0 247 0 53
-173z m1147 -29 c253 -398 299 -472 342 -557 27 -53 42 -74 39 -56 -22 126
-31 378 -27 758 l1 57 190 0 190 0 0 -765 0 -765 -192 0 -193 0 -134 218 c-74
119 -175 282 -225 362 -49 80 -116 197 -148 260 -60 120 -64 124 -49 43 10
-51 13 -246 12 -650 l-1 -233 -190 0 -190 0 0 765 0 765 223 0 223 0 129 -202z
m1465 -563 l0 -765 -235 0 -235 0 0 765 0 765 235 0 235 0 0 -765z m701 738
c0 -16 0 -143 0 -284 0 -141 3 -268 7 -282 6 -22 31 11 212 284 l205 309 208
0 c114 0 207 -2 207 -5 0 -6 -60 -94 -245 -360 -61 -88 -116 -169 -122 -179
-9 -16 31 -103 228 -502 l238 -484 -257 0 c-257 0 -257 0 -267 23 -164 364
-250 547 -254 547 -3 -1 -41 -51 -84 -113 l-79 -112 4 -172 5 -173 -224 0
-223 0 0 765 0 765 220 0 220 0 1 -27z m-6471 -93 c0 -5 -2 -10 -4 -10 -3 0
-8 5 -11 10 -3 6 -1 10 4 10 6 0 11 -4 11 -10z m-230 -490 c0 -5 -7 -10 -15
-10 -8 0 -15 5 -15 10 0 6 7 10 15 10 8 0 15 -4 15 -10z m-10 -1010 c0 -5 -4
-10 -10 -10 -5 0 -10 5 -10 10 0 6 5 10 10 10 6 0 10 -4 10 -10z"/>
<path d="M2336 7257 l-87 -204 -92 -35 c-51 -20 -91 -40 -91 -44 1 -5 4 -25 8
-45 l6 -36 -475 -157 -475 -157 -52 16 c-63 18 -160 19 -211 1 -20 -8 -63 -33
-94 -57 -105 -82 -144 -219 -98 -353 15 -43 36 -75 80 -121 55 -58 65 -64 120
-75 33 -6 67 -13 75 -16 14 -4 80 -138 96 -194 3 -14 35 -83 69 -155 34 -71
66 -141 70 -155 4 -14 38 -88 76 -165 87 -180 95 -208 73 -281 -15 -52 -15
-62 2 -152 23 -126 22 -163 -14 -307 -47 -189 -36 -175 -138 -175 -106 0 -157
-14 -190 -53 -23 -28 -24 -35 -22 -141 l3 -111 745 -3 c410 -1 755 0 768 3 21
5 22 10 22 106 0 113 -10 140 -64 177 -28 19 -45 22 -138 22 l-106 0 -12 53
c-7 28 -27 107 -46 175 l-34 123 21 71 c18 59 21 86 16 161 -8 117 -43 193
-123 267 -68 62 -102 81 -174 95 l-54 11 -114 170 c-186 275 -262 384 -329
473 -63 85 -91 146 -79 176 6 18 63 45 266 128 74 31 191 82 260 115 69 33
148 70 175 82 28 12 64 28 80 36 37 16 134 54 140 54 3 0 14 -18 25 -40 11
-22 25 -40 31 -40 6 0 45 14 86 32 76 31 77 31 107 13 25 -14 191 -101 327
-172 15 -7 34 -11 42 -7 16 6 163 257 212 362 l30 64 -44 39 c-23 21 -46 39
-51 39 -4 0 -37 -33 -71 -72 -121 -138 -124 -141 -147 -134 -27 9 -122 83
-127 99 -2 7 -24 67 -50 135 -46 126 -53 172 -36 246 14 58 21 61 98 48 37 -7
100 -15 140 -18 l72 -6 10 39 c20 79 25 73 -84 118 -269 113 -325 135 -333
135 -5 0 -48 -92 -96 -203z m297 61 c95 -37 157 -66 157 -74 0 -18 -11 -17
-148 2 -62 8 -118 14 -124 12 -6 -2 -20 -31 -32 -63 -19 -54 -26 -63 -71 -87
-56 -31 -95 -36 -95 -13 0 19 98 266 113 283 5 7 17 10 26 7 9 -3 87 -33 174
-67z m-175 -295 c6 -16 35 -89 66 -163 58 -141 64 -164 44 -173 -236 -96 -291
-116 -297 -112 -14 8 -133 334 -129 352 2 12 45 34 133 69 154 62 169 64 183
27z m-313 -289 c20 -52 35 -97 32 -100 -2 -2 -82 -39 -178 -80 -517 -226 -681
-294 -689 -289 -6 4 -10 31 -10 61 0 67 -17 109 -66 163 -21 24 -33 45 -28 50
12 11 58 27 319 110 121 38 297 94 390 124 94 31 175 56 181 56 7 1 29 -42 49
-95z m825 35 c0 -6 -26 -61 -57 -123 -31 -61 -67 -132 -80 -158 -13 -26 -28
-50 -33 -53 -11 -7 -290 133 -290 145 0 9 122 70 140 70 7 0 34 -16 60 -35 26
-19 52 -35 57 -35 8 0 89 86 158 168 27 33 45 41 45 21z m-1921 -223 c117 -32
184 -119 185 -240 1 -183 -120 -285 -308 -262 -72 9 -140 55 -180 122 -25 40
-31 62 -34 119 -4 66 -2 75 32 131 72 124 170 165 305 130z m202 -498 c7 -13
15 -25 18 -28 4 -3 38 -52 77 -110 134 -201 326 -481 356 -519 10 -13 18 -27
18 -31 0 -4 -25 -10 -55 -12 -60 -5 -148 -52 -222 -120 -24 -21 -47 -38 -53
-38 -5 0 -23 28 -39 63 -73 153 -311 693 -311 704 0 7 28 26 63 42 34 16 71
38 81 50 25 27 52 27 67 -1z m573 -774 c188 -47 311 -244 261 -419 -38 -131
-94 -194 -212 -237 -80 -29 -210 -29 -273 0 -87 39 -173 137 -196 224 -33 125
-6 245 74 330 100 107 205 138 346 102z m-370 -643 c16 -16 62 -47 104 -68 73
-37 78 -38 181 -38 94 0 113 3 165 28 32 15 79 45 103 68 24 22 49 39 56 36 6
-2 15 -19 19 -38 5 -19 20 -71 35 -116 14 -44 23 -88 20 -97 -6 -14 -48 -16
-392 -16 -334 0 -386 2 -391 15 -10 25 49 255 65 255 4 0 20 -13 35 -29z m971
-326 c22 -21 25 -33 25 -89 l0 -66 -287 -2 c-159 -2 -478 -2 -710 0 l-423 2 0
70 c0 121 -69 110 705 110 l666 0 24 -25z"/>
<path d="M2391 7233 c-27 -70 -48 -129 -46 -131 1 -2 26 8 53 22 46 24 52 31
69 82 23 74 35 79 145 64 49 -6 91 -10 94 -8 5 6 -235 98 -253 98 -6 0 -34
-57 -62 -127z"/>
<path d="M2291 6980 c-67 -27 -125 -51 -128 -54 -3 -3 9 -45 27 -93 18 -48 45
-121 60 -161 14 -40 31 -73 36 -73 23 0 274 107 273 116 -2 23 -125 309 -134
311 -5 2 -66 -19 -134 -46z"/>
<path d="M2060 6798 c-14 -5 -68 -23 -120 -40 -252 -80 -318 -101 -495 -157
-104 -34 -196 -63 -203 -66 -10 -3 -4 -17 21 -47 42 -54 48 -68 56 -144 l6
-62 135 60 c74 32 182 79 240 105 58 25 119 51 135 59 99 44 302 132 311 135
11 4 -44 169 -56 168 -3 0 -16 -5 -30 -11z"/>
<path d="M2850 6630 c-67 -78 -86 -82 -149 -36 l-49 36 -45 -19 c-25 -11 -47
-23 -50 -28 -3 -4 49 -36 114 -70 l119 -62 60 120 c33 65 58 119 56 119 -2 0
-27 -27 -56 -60z"/>
<path d="M895 6526 c-94 -44 -164 -139 -165 -220 0 -72 19 -122 63 -167 78
-81 192 -102 292 -55 67 31 99 70 120 150 15 55 16 72 6 113 -20 77 -54 126
-110 156 -61 34 -160 45 -206 23z m181 -131 c46 -44 47 -45 42 -99 -8 -102
-80 -159 -178 -139 -36 7 -51 17 -77 52 -27 35 -33 51 -33 93 0 46 4 54 44 94
41 42 47 44 100 44 52 0 58 -3 102 -45z"/>
<path d="M889 6381 c-33 -33 -39 -45 -39 -83 0 -34 7 -52 30 -80 74 -89 204
-43 217 77 5 38 2 46 -32 84 -34 38 -41 41 -87 41 -45 0 -54 -4 -89 -39z m126
-46 c30 -29 32 -58 5 -85 -41 -41 -110 -15 -110 42 0 33 31 68 60 68 12 0 32
-11 45 -25z"/>
<path d="M946 6324 c-29 -29 -13 -74 25 -74 19 0 49 25 49 41 0 12 -37 49 -49
49 -5 0 -17 -7 -25 -16z"/>
<path d="M1195 6030 c-10 -11 -45 -32 -77 -47 -32 -14 -58 -27 -58 -28 0 -1
81 -186 115 -260 50 -113 80 -179 141 -317 38 -87 73 -158 79 -158 5 0 25 15
45 34 45 44 182 116 221 116 l29 0 -33 48 c-19 26 -69 99 -112 162 -43 63
-110 160 -147 215 -38 55 -92 135 -121 178 -28 42 -54 77 -58 77 -3 0 -14 -9
-24 -20z"/>
<path d="M1650 5261 c-80 -25 -169 -99 -207 -175 -110 -218 78 -498 318 -472
122 12 223 71 267 156 73 138 61 255 -39 382 -69 86 -236 140 -339 109z m155
-160 c22 -10 56 -35 75 -55 32 -34 35 -43 35 -95 0 -76 -26 -124 -88 -162 -58
-36 -92 -36 -163 -3 -64 30 -80 52 -96 126 -10 50 -9 59 11 101 25 51 58 80
111 95 51 15 71 14 115 -7z"/>
<path d="M1674 5081 c-76 -35 -104 -101 -79 -187 13 -46 22 -57 58 -79 60 -35
100 -41 139 -21 67 33 96 74 105 145 5 44 3 51 -28 86 -35 39 -98 75 -134 75
-11 0 -38 -9 -61 -19z m115 -65 c49 -26 64 -86 31 -128 -48 -61 -120 -57 -161
8 -50 82 41 166 130 120z"/>
<path d="M1698 4995 c-34 -19 -43 -47 -24 -83 30 -57 96 -61 131 -8 19 29 13
58 -18 86 -24 23 -52 25 -89 5z"/>
<path d="M2020 4604 c-19 -20 -64 -50 -100 -67 -61 -29 -72 -31 -180 -31 -111
-1 -118 0 -184 33 -37 18 -82 46 -100 62 l-33 28 -17 -57 c-16 -55 -35 -139
-36 -154 0 -5 169 -8 375 -8 411 0 392 -3 361 58 -7 15 -19 54 -26 87 -19 89
-21 90 -60 49z"/>
<path d="M1066 4294 c-11 -10 -16 -34 -16 -70 l0 -54 690 0 690 0 0 50 c0 37
-5 55 -20 70 -20 20 -33 20 -674 20 -582 0 -656 -2 -670 -16z"/>
<path d="M17217 7313 c-4 -3 -7 -215 -7 -470 l0 -463 115 0 115 0 0 470 0 470
-108 0 c-60 0 -112 -3 -115 -7z m193 -463 l0 -441 -82 3 -83 3 -3 425 c-1 234
0 431 3 438 3 8 30 12 85 12 l80 0 0 -440z"/>
<path d="M17285 6850 l0 -400 43 0 c23 0 42 3 43 8 0 4 2 184 3 400 l2 392
-46 0 -46 0 1 -400z"/>
<path d="M17477 7313 c-4 -3 -7 -214 -7 -469 l0 -462 78 -7 c103 -9 168 -20
352 -60 85 -19 324 -70 530 -115 206 -44 392 -84 413 -89 l37 -9 -2 411 -3
410 -595 199 -595 198 -101 0 c-55 0 -104 -3 -107 -7z m783 -218 l585 -195 3
-380 2 -380 -22 5 c-13 2 -63 14 -113 24 -49 11 -142 32 -205 45 -63 14 -272
60 -465 101 -192 42 -372 79 -400 81 -27 3 -69 7 -92 10 l-43 5 0 152 c-1 112
0 703 0 725 0 1 37 2 83 2 81 0 96 -4 667 -195z"/>
<path d="M17540 6847 l1 -404 56 -2 c32 -1 181 -29 333 -62 151 -33 401 -87
555 -120 154 -33 290 -62 303 -66 l22 -5 0 344 0 343 -563 188 c-522 173 -568
187 -635 187 l-72 0 0 -403z"/>
<path d="M17216 6332 c-3 -5 -5 -429 -4 -943 l1 -934 -99 -88 c-55 -48 -106
-94 -114 -102 -12 -13 14 -15 213 -15 l227 0 0 1045 0 1045 -109 0 c-61 0
-112 -4 -115 -8z m194 -1037 l0 -1015 -172 0 -173 0 88 83 88 82 -1 926 c0
509 3 929 7 932 3 4 42 7 85 7 l78 0 0 -1015z"/>
<path d="M17288 6218 c-3 -29 -5 -442 -3 -918 l3 -865 -59 -57 -58 -58 98 0
c71 0 100 4 103 13 2 6 3 444 3 972 l0 960 -41 3 -41 3 -5 -53z"/>
<path d="M17472 5299 l3 -1044 363 -3 c199 -1 362 -1 362 1 0 2 -7 25 -16 52
-31 91 -5 343 65 631 17 67 38 143 49 170 21 57 77 145 120 191 60 64 208 81
305 34 24 -12 62 -21 84 -21 79 0 73 -32 73 391 0 208 -3 379 -7 379 -5 0
-118 23 -253 50 -219 45 -482 99 -845 173 -66 14 -162 28 -213 32 l-92 7 2
-1043z m183 995 c37 -4 110 -19 445 -89 63 -13 248 -51 410 -84 162 -34 305
-63 318 -66 l22 -5 0 -355 0 -355 -40 0 c-23 0 -59 9 -81 21 -87 44 -232 33
-313 -24 -37 -26 -119 -152 -146 -225 -86 -229 -157 -709 -120 -806 l10 -26
-326 2 -326 3 1 1010 c0 556 1 1011 1 1013 0 3 54 -3 145 -14z"/>
<path d="M17540 5296 l0 -976 283 0 282 0 -3 89 c-5 144 46 445 113 666 27 87
89 200 144 260 70 78 199 110 324 81 38 -9 78 -23 90 -31 12 -8 25 -15 29 -15
5 0 8 146 8 325 l0 325 -22 5 c-22 5 -372 77 -873 179 -121 24 -242 48 -270
51 -27 3 -62 9 -77 11 l-28 6 0 -976z"/>
<path d="M18520 5287 c-38 -13 -95 -82 -136 -163 -28 -57 -81 -260 -115 -439
-15 -82 -23 -160 -23 -246 l-1 -127 31 -38 c45 -58 106 -86 174 -82 30 3 72
12 93 23 46 21 78 79 133 240 20 59 43 109 50 112 7 2 26 -3 43 -11 42 -22
118 -20 166 4 35 18 59 20 218 20 158 0 182 -2 217 -20 46 -23 123 -26 160 -5
50 29 56 22 96 -97 60 -183 84 -223 157 -253 99 -41 230 12 266 108 36 94 -35
560 -118 778 -25 65 -84 154 -122 181 -51 38 -207 33 -223 -7 -4 -12 -25 -15
-91 -15 -72 0 -88 3 -105 20 -19 19 -33 20 -238 20 -206 0 -220 -1 -237 -20
-16 -17 -31 -20 -107 -20 -69 0 -90 3 -94 15 -13 32 -127 45 -194 22z m179
-36 c17 -17 34 -21 84 -22 59 0 61 -1 40 -16 -42 -29 -25 -163 20 -163 6 0 20
9 32 20 l20 19 0 -40 c0 -31 6 -46 24 -60 21 -17 42 -19 233 -19 l209 0 26 26
c21 21 25 32 20 65 l-5 39 20 -25 c40 -52 78 -21 78 64 0 49 -4 61 -22 74 -22
15 -20 16 40 16 51 1 66 5 85 24 19 19 32 22 99 22 73 0 79 -2 110 -32 84 -82
124 -184 184 -478 34 -168 54 -383 41 -437 -9 -33 -61 -87 -103 -104 -46 -19
-111 -17 -161 5 -50 23 -68 55 -128 226 -24 66 -50 124 -58 129 -11 7 -27 5
-52 -7 -49 -23 -122 -22 -163 3 -29 18 -50 20 -217 20 -166 0 -189 -2 -222
-20 -46 -25 -103 -26 -166 -3 -61 22 -65 18 -107 -112 -51 -157 -83 -213 -133
-235 -82 -38 -164 -22 -227 44 -34 36 -35 39 -38 130 -6 163 85 617 146 729
35 65 97 134 125 141 12 2 50 3 83 1 47 -2 67 -8 83 -24z m679 7 c14 -14 17
-225 4 -246 -7 -9 -60 -12 -233 -10 l-224 3 -3 124 c-2 93 1 126 10 133 22 13
432 10 446 -4z m-482 -43 c11 -29 -1 -34 -25 -10 -23 25 -23 25 -2 25 12 0 24
-7 27 -15z m532 -14 c-27 -33 -31 -33 -22 3 4 17 13 26 26 26 19 0 18 -1 -4
-29z m-560 -62 c2 -45 0 -58 -13 -63 -27 -10 -35 2 -35 58 0 57 5 68 30 64 11
-2 16 -18 18 -59z m610 2 c3 -58 -5 -75 -31 -65 -13 5 -17 19 -17 58 0 57 5
68 30 64 11 -2 16 -18 18 -57z"/>
<path d="M18638 5233 c7 -3 16 -2 19 1 4 3 -2 6 -13 5 -11 0 -14 -3 -6 -6z"/>
<path d="M19648 5233 c7 -3 16 -2 19 1 4 3 -2 6 -13 5 -11 0 -14 -3 -6 -6z"/>
<path d="M18505 5181 c-145 -67 -170 -259 -48 -360 129 -106 327 -23 341 145
13 162 -149 282 -293 215z m37 -13 c-7 -7 -12 -36 -12 -65 l0 -53 -53 0 c-29
0 -59 -6 -66 -12 -11 -11 -12 -8 -6 12 12 42 52 86 97 109 49 24 57 26 40 9z
m66 5 c-10 -2 -26 -2 -35 0 -10 3 -2 5 17 5 19 0 27 -2 18 -5z m108 -41 c29
-29 64 -81 64 -96 0 -6 -5 -5 -12 2 -7 7 -36 12 -65 12 l-53 0 0 53 c0 29 -6
59 -12 65 -10 10 -6 10 19 1 18 -6 44 -23 59 -37z m-86 -29 c-1 -33 -7 -56
-20 -72 l-20 -23 -20 23 c-13 16 -19 39 -20 72 l0 47 40 0 40 0 0 -47z m-85
-93 c17 -19 17 -21 0 -40 -14 -15 -31 -20 -72 -20 l-53 0 0 40 0 40 53 0 c41
0 58 -5 72 -20z m215 -20 l0 -40 -53 0 c-41 0 -58 5 -72 20 -17 19 -17 21 0
40 14 15 31 20 72 20 l53 0 0 -40z m-363 -12 c-3 -8 -6 -5 -6 6 -1 11 2 17 5
13 3 -3 4 -12 1 -19z m147 -43 c-11 -17 -15 -41 -12 -80 1 -30 1 -55 -1 -55
-22 0 -91 56 -109 88 -25 44 -30 74 -10 54 18 -18 113 -15 128 3 20 24 22 18
4 -10z m70 0 c9 -13 16 -45 16 -70 l0 -45 -40 0 -40 0 0 45 c0 42 22 95 40 95
4 0 15 -11 24 -25z m91 -5 c28 0 57 6 64 13 11 10 13 9 7 -6 -3 -10 -6 -23 -6
-27 0 -30 -99 -111 -132 -109 -10 0 -10 2 0 6 15 6 17 113 2 131 -7 9 -7 9 2
2 7 -5 35 -10 63 -10z m-102 -137 c-7 -2 -19 -2 -25 0 -7 3 -2 5 12 5 14 0 19
-2 13 -5z"/>
<path d="M18582 5095 c0 -16 2 -22 5 -12 2 9 2 23 0 30 -3 6 -5 -1 -5 -18z"/>
<path d="M18468 4983 c6 -2 18 -2 25 0 6 3 1 5 -13 5 -14 0 -19 -2 -12 -5z"/>
<path d="M18688 4983 c6 -2 18 -2 25 0 6 3 1 5 -13 5 -14 0 -19 -2 -12 -5z"/>
<path d="M18475 4880 c3 -5 8 -10 11 -10 2 0 4 5 4 10 0 6 -5 10 -11 10 -5 0
-7 -4 -4 -10z"/>
<path d="M18583 4880 c-1 -11 2 -20 8 -20 5 0 9 9 9 20 0 11 -4 20 -8 20 -4 0
-8 -9 -9 -20z"/>
<path d="M19645 5189 c-45 -13 -100 -63 -124 -112 -29 -60 -27 -121 7 -188 46
-91 132 -131 232 -109 74 16 143 84 158 157 35 163 -113 299 -273 252z m11
-43 c-17 -33 -11 -62 17 -81 30 -21 63 -19 87 5 21 21 27 74 10 85 -5 3 -10
11 -10 16 0 20 82 -34 110 -73 35 -47 38 -63 11 -48 -30 15 -52 12 -78 -12
-29 -27 -29 -65 -1 -95 23 -25 48 -29 79 -13 24 14 24 7 -3 -42 -22 -39 -58
-67 -113 -88 l-30 -11 23 23 c42 45 15 118 -43 118 -56 0 -86 -78 -45 -115 28
-25 19 -29 -26 -10 -49 20 -81 50 -105 97 -26 50 -24 66 4 40 37 -35 79 -27
103 19 13 26 13 32 0 58 -25 47 -72 55 -107 19 -18 -19 -21 -20 -15 -5 3 10 6
23 6 28 0 28 122 130 138 115 1 -2 -4 -15 -12 -30z m85 14 c12 -7 19 -21 18
-38 0 -25 -1 -25 -12 -9 -34 53 -33 52 -53 19 -20 -34 -34 -41 -34 -17 0 17
35 55 51 55 6 0 19 -5 30 -10z m-21 -40 c0 -5 -5 -10 -11 -10 -5 0 -7 5 -4 10
3 6 8 10 11 10 2 0 4 -4 4 -10z m25 -40 c-3 -5 -17 -10 -30 -10 -13 0 -27 5
-30 10 -4 6 8 10 30 10 22 0 34 -4 30 -10z m-123 -57 c22 -20 23 -41 1 -65
-23 -26 -59 -23 -79 6 -12 19 -13 29 -5 43 9 15 10 13 11 -14 0 -31 2 -33 35
-33 32 0 35 2 35 29 0 30 -28 50 -50 36 -5 -3 -10 -1 -10 4 0 17 41 13 62 -6z
m260 0 c22 -20 23 -41 1 -65 -32 -36 -83 -17 -83 32 0 48 45 67 82 33z m-282
-28 c0 -8 -7 -15 -15 -15 -8 0 -15 7 -15 15 0 8 7 15 15 15 8 0 15 -7 15 -15z
m130 -100 c-10 -12 -16 -13 -26 -4 -16 13 -15 14 -19 -29 -2 -25 1 -33 14 -31
28 3 41 -1 41 -11 0 -21 -50 -10 -66 15 -15 23 -15 27 0 50 11 16 26 25 42 25
23 0 25 -2 14 -15z m30 -37 c0 -16 -3 -19 -11 -11 -6 6 -8 16 -5 22 11 17 16
13 16 -11z"/>
<path d="M19690 4990 c0 -15 7 -20 25 -20 18 0 25 5 25 20 0 15 -7 20 -25 20
-18 0 -25 -5 -25 -20z"/>
<path d="M19822 5018 c-23 -23 -7 -68 24 -68 14 0 44 27 44 40 0 13 -30 40
-44 40 -6 0 -17 -5 -24 -12z m43 -28 c0 -8 -8 -16 -17 -18 -13 -2 -18 3 -18
18 0 15 5 20 18 18 9 -2 17 -10 17 -18z"/>
<path d="M18840 4976 c0 -27 -10 -63 -28 -98 l-28 -55 28 9 c58 20 144 -16
174 -74 9 -18 17 -52 17 -75 l0 -43 148 0 149 0 0 49 c0 65 31 109 93 135 39
16 55 18 85 10 l37 -10 -27 54 c-18 35 -28 71 -28 98 0 52 -9 56 -30 11 -24
-52 -63 -59 -300 -55 -223 3 -239 7 -261 60 -17 41 -29 34 -29 -16z"/>
<path d="M19926 4853 c-9 -27 -55 -67 -109 -95 -50 -25 -145 -28 -200 -5 -36
15 -37 15 -27 -3 5 -10 10 -41 10 -68 0 -37 6 -57 21 -74 11 -12 38 -73 59
-135 52 -151 68 -182 104 -204 63 -39 161 -16 202 46 30 45 10 275 -44 520 -7
35 -9 37 -16 18z"/>
<path d="M18336 4723 c-15 -78 -30 -191 -33 -259 -6 -115 -5 -124 16 -153 29
-41 70 -61 123 -61 89 0 110 26 177 214 27 77 57 143 65 148 12 7 16 24 16 64
0 30 5 64 10 74 10 18 9 18 -27 3 -92 -38 -224 -6 -286 69 l-33 40 -28 -139z"/>
<path d="M18805 4791 c-53 -23 -83 -93 -61 -146 43 -103 181 -97 216 9 13 39
-3 88 -38 119 -23 21 -87 31 -117 18z m94 -26 c34 -17 56 -65 47 -101 -23 -92
-154 -100 -185 -11 -30 84 57 154 138 112z"/>
<path d="M18803 4714 c-15 -24 -15 -29 -2 -53 26 -46 109 -33 109 18 0 58 -75
83 -107 35z"/>
<path d="M19382 4775 c-82 -69 -46 -190 61 -202 36 -4 48 -1 74 21 84 71 49
191 -60 203 -36 4 -48 1 -75 -22z m118 -10 c20 -10 33 -28 41 -54 10 -34 9
-44 -8 -73 -57 -98 -209 -31 -173 77 19 58 82 80 140 50z"/>
<path d="M19406 4718 c-21 -29 -20 -51 2 -71 35 -32 102 -10 102 34 0 29 -31
59 -60 59 -18 0 -34 -8 -44 -22z"/>
<path d="M18960 5130 l0 -100 195 0 195 0 0 100 0 100 -195 0 -195 0 0 -100z"/>
<path d="M8300 7089 c0 -6 9 -8 20 -4 14 5 20 2 20 -9 0 -9 -4 -16 -9 -16 -4
0 -20 -11 -34 -25 -30 -31 -45 -17 -22 19 16 24 16 25 -7 31 -42 9 -96 -15
-81 -38 3 -5 -4 -17 -16 -26 -22 -17 -23 -21 -35 -104 -7 -49 -23 -57 -23 -12
0 28 -9 42 -19 32 -13 -13 -17 -147 -5 -147 8 0 9 -5 1 -19 -5 -11 -10 -29
-10 -40 0 -19 6 -21 60 -21 33 0 60 -4 60 -9 0 -14 -27 -21 -76 -21 -24 0 -44
-4 -44 -10 0 -11 19 -14 62 -11 32 3 48 -18 19 -26 l-21 -5 20 -28 c11 -16 20
-39 20 -53 0 -15 19 -50 48 -86 26 -33 72 -92 102 -131 30 -39 65 -73 78 -77
17 -4 21 -10 17 -24 -5 -14 0 -22 19 -29 14 -5 26 -14 26 -19 0 -5 10 -11 22
-15 21 -5 21 -6 6 -18 -15 -12 -4 -29 107 -172 84 -108 134 -164 155 -173 l31
-13 -26 -26 c-21 -21 -24 -29 -14 -40 9 -11 8 -19 -7 -36 -30 -35 -38 -42 -66
-58 -25 -15 -59 -53 -168 -195 -30 -39 -126 -162 -212 -273 -87 -111 -158
-204 -158 -207 0 -3 9 -5 19 -5 28 0 52 -11 46 -21 -3 -5 -28 -11 -56 -15 -57
-8 -76 -24 -27 -24 25 0 29 -3 18 -10 -8 -5 -25 -10 -36 -10 -22 0 -22 -2 -23
-210 l-2 -210 225 0 224 0 31 48 c17 26 67 99 112 162 44 63 92 133 106 155
13 22 33 52 43 66 19 27 19 27 -3 34 -20 7 -19 8 10 14 21 4 40 18 56 41 13
19 46 67 73 106 48 70 56 96 39 137 -4 11 -3 23 4 30 6 6 11 19 11 28 0 12 12
19 48 24 26 4 52 10 57 13 14 9 53 11 98 5 32 -4 36 -7 26 -19 -10 -12 -8 -18
7 -29 10 -8 22 -15 27 -15 4 0 7 -12 7 -27 0 -16 4 -34 9 -42 5 -7 4 -25 -2
-41 -10 -25 -6 -35 29 -87 79 -117 116 -162 129 -157 7 3 16 1 20 -5 3 -6 -1
-11 -10 -11 -9 0 -15 -6 -12 -12 2 -7 14 -13 26 -12 21 1 30 -21 11 -28 -9 -3
47 -89 176 -274 37 -53 54 -70 65 -64 8 4 28 10 44 12 24 2 30 -1 29 -14 -1
-14 6 -18 28 -18 17 0 27 -4 23 -10 -4 -7 50 -10 154 -10 97 0 161 4 161 10 0
5 -6 7 -14 4 -25 -9 -27 14 -4 36 l23 21 -30 -7 c-58 -15 -152 -4 -140 16 8
14 49 12 63 -2 8 -8 15 -8 26 2 9 7 22 10 30 7 8 -3 22 1 33 8 15 11 16 17 6
33 -8 14 -8 23 -1 30 7 7 4 17 -10 32 l-20 22 -11 -21 c-8 -13 -22 -21 -39
-21 -16 0 -37 -11 -51 -25 -13 -14 -28 -25 -35 -25 -6 1 7 16 28 36 22 19 44
33 50 31 13 -4 53 38 61 64 9 27 23 23 18 -5 -3 -13 0 -27 6 -30 16 -10 14
107 -1 122 -10 10 -10 14 0 21 8 5 12 21 10 37 -2 24 -9 31 -40 38 -34 9 -53
26 -28 26 14 0 7 32 -13 63 -12 18 -22 24 -34 20 -11 -4 -14 -3 -9 6 8 12 -28
72 -78 133 -16 18 -82 105 -148 193 -210 283 -227 304 -248 315 -11 6 -20 17
-20 24 0 19 -33 46 -56 46 -20 0 -44 17 -44 32 0 4 6 8 14 8 35 0 23 20 -16
26 l-42 7 49 14 c69 20 76 29 78 107 1 49 5 65 15 61 7 -2 15 2 18 10 7 17 34
21 34 5 0 -6 -7 -13 -15 -16 -17 -7 -21 -64 -5 -64 6 0 10 7 10 15 0 8 4 15 8
15 9 0 152 185 152 196 0 4 7 12 17 19 9 7 17 23 18 36 1 16 7 23 19 21 9 -2
16 1 16 7 0 5 18 32 40 60 22 28 53 68 68 89 15 21 48 65 74 98 27 32 48 67
48 77 0 9 6 17 14 17 7 0 21 11 30 25 16 25 16 25 -13 25 -49 0 -45 18 6 26
62 9 70 14 48 30 -16 12 -16 14 -2 20 9 3 21 3 27 -1 7 -4 10 57 10 194 0 185
-1 201 -17 201 -16 1 -16 2 1 15 18 13 6 15 -110 15 -93 -1 -134 -4 -147 -14
-10 -8 -28 -11 -40 -8 -22 6 -22 6 3 13 20 6 18 7 -16 8 -29 1 -44 -4 -48 -14
-3 -8 -13 -15 -22 -15 -10 0 -14 5 -10 15 10 28 -13 15 -29 -15 -8 -16 -28
-44 -44 -62 -15 -18 -45 -58 -67 -89 -21 -31 -64 -89 -95 -130 -83 -111 -95
-131 -75 -123 27 10 18 -2 -21 -28 -21 -14 -46 -40 -56 -57 -17 -28 -17 -31
-1 -31 10 0 14 -5 11 -14 -3 -8 0 -17 8 -20 20 -7 6 -46 -16 -46 -13 0 -19 7
-19 24 0 36 -17 41 -36 10 -14 -20 -15 -30 -6 -44 9 -15 7 -19 -10 -23 -14 -4
-19 -11 -14 -23 3 -9 -3 -42 -15 -74 -17 -48 -26 -59 -52 -68 l-32 -9 43 -8
c49 -9 49 -12 2 -20 -89 -16 -250 -13 -250 5 0 5 23 11 50 15 55 7 59 25 6 25
-40 0 -51 9 -29 25 15 11 15 13 -5 24 -12 6 -22 18 -22 25 0 8 -8 31 -17 52
-9 22 -17 54 -18 73 -1 24 -8 39 -28 53 -15 11 -27 27 -27 36 0 9 -15 38 -32
64 -31 45 -36 48 -90 54 -64 7 -69 24 -7 24 l41 0 -22 28 c-12 15 -62 82 -111
150 -50 67 -96 122 -102 123 -43 3 -60 7 -65 16 -12 18 -56 37 -79 34 -26 -3
-41 18 -22 30 9 6 -7 9 -43 9 -35 0 -58 -4 -58 -11z m1690 -10 c0 -6 -7 -8
-16 -5 -9 4 -22 2 -29 -4 -9 -7 -16 -6 -25 5 -11 13 -7 15 29 15 23 0 41 -5
41 -11z m110 1 c0 -5 -7 -10 -15 -10 -8 0 -15 5 -15 10 0 6 7 10 15 10 8 0 15
-4 15 -10z m-1720 -41 c0 -5 -7 -9 -15 -9 -8 0 -15 7 -15 15 0 9 6 12 15 9 8
-4 15 -10 15 -15z m-170 -89 c0 -5 -4 -10 -10 -10 -5 0 -10 5 -10 10 0 6 5 10
10 10 6 0 10 -4 10 -10z m10 -84 c0 -3 -4 -8 -10 -11 -5 -3 -10 -1 -10 4 0 6
5 11 10 11 6 0 10 -2 10 -4z m-103 -48 c-3 -8 -6 -5 -6 6 -1 11 2 17 5 13 3
-3 4 -12 1 -19z m1263 -388 c0 -5 -4 -10 -10 -10 -5 0 -10 5 -10 10 0 6 5 10
10 10 6 0 10 -4 10 -10z m-237 -1067 c-7 -2 -21 -2 -30 0 -10 3 -4 5 12 5 17
0 24 -2 18 -5z m577 3 c0 -11 -19 -15 -25 -6 -3 5 1 10 9 10 9 0 16 -2 16 -4z
m350 -416 c0 -5 -7 -10 -15 -10 -8 0 -15 5 -15 10 0 6 7 10 15 10 8 0 15 -4
15 -10z m-543 -66 c-3 -3 -12 -4 -19 -1 -8 3 -5 6 6 6 11 1 17 -2 13 -5z m43
-154 c0 -5 -2 -10 -4 -10 -3 0 -8 5 -11 10 -3 6 -1 10 4 10 6 0 11 -4 11 -10z
m555 -140 c3 -5 -1 -10 -10 -10 -9 0 -13 5 -10 10 3 6 8 10 10 10 2 0 7 -4 10
-10z m-160 -60 c4 -6 -8 -10 -30 -10 -20 0 -46 -5 -57 -11 -14 -7 -23 -8 -31
0 -7 7 -1 12 19 16 16 4 34 8 39 10 22 7 54 5 60 -5z m-1437 -45 c-2 -5 -41
-11 -88 -12 -52 -2 -80 1 -75 6 18 18 167 23 163 6z"/>
<path d="M7991 4874 c0 -11 3 -14 6 -6 3 7 2 16 -1 19 -3 4 -6 -2 -5 -13z"/>
<path d="M12868 6803 c7 -3 16 -2 19 1 4 3 -2 6 -13 5 -11 0 -14 -3 -6 -6z"/>
<path d="M11302 5418 c-6 -18 -31 -109 -57 -203 -26 -93 -49 -178 -51 -187 -5
-16 5 -18 120 -18 l125 0 -10 33 c-5 17 -32 115 -60 217 -28 102 -53 186 -54
188 -2 2 -8 -12 -13 -30z"/>
</g>
</svg>
